<svg width="479" height="149" viewBox="0 0 479 149" xmlns="http://www.w3.org/2000/svg"><title>Logo</title><g fill="none" fill-rule="evenodd"><rect fill="#383737" width="479" height="149" rx="7"/><path d="M96.8 108.08l-.48-.48c-.36-.36-.54-.7-.54-1.02 0-.4.12-.62.36-.66.16-.08.34-.02.54.18.24 0 .36.2.36.6 0 .32-.08.78-.24 1.38zm7.02-25.8c0 .32-.16.64-.48.96-.2-.2-.38-.3-.54-.3-.12 0-.22.06-.3.18.68.6 1.02 1.48 1.02 2.64 0 .28-.3 1.58-.9 3.9 0-.12-.06-.48-.18-1.08-.08-.48-.06-.84.06-1.08l-.48-.54c-.2.6-.3 1.12-.3 1.56 0 .72.26 1.24.78 1.56-.64 1.68-2.2 3.37-4.68 5.07-2.48 1.7-4.62 2.55-6.42 2.55-2.76 0-5.78.2-9.06.6l.51.51c.34.34.51.63.51.87 0 .68-.49 1.36-1.47 2.04-.98.68-1.83 1.02-2.55 1.02-.28 0-1.38-.98-3.3-2.94.96 0 1.84-.42 2.64-1.26.08-.36-.14-.54-.66-.54H62.3V50.48h8.28c0 .48.08.78.24.9.12-.12.18-.42.18-.9.32 0 3.1-.08 8.34-.24l5.88-.18c4.44-.12 8.2.68 11.28 2.4 3.56 2 5.34 5.18 5.34 9.54 0 4.04-2.02 7.26-6.06 9.66 2.32 1.04 4.2 2.42 5.64 4.14 1.6 2 2.4 4.16 2.4 6.48zM81.8 99.44h-.54v1.2h.54v-1.2zm-1.2-.66c-.48-.36-.86-.6-1.14-.72v1.32c.08-.08.16-.12.24-.12.48 0 .78.26.9.78v-1.26zm-.54 1.92l-.48.18.42.78h.48l-.42-.96zm12.78-44.94l-1.2-.78-.3.48 1.2.78.3-.48zm1.02 2.28l-.42-.96-.48.18.42.78h.48zm2.4 2.52l-2.16-2.52-.48.3 2.16 2.52.48-.3zm-21.84-8.22v-.9h-.54v.9h.54zm23.34 23.34v-.6h-.9v.6h.9zm-8.34-11.22c0-.72-.26-1.58-.78-2.58-.72-1.36-1.64-2.04-2.76-2.04H74.72v9.3l10.32.06c1.12 0 2.13-.51 3.03-1.53.9-1.02 1.35-2.09 1.35-3.21zM71.06 54.02v-.9h-.54v.9h.54zm1.14.72c-.04.08-.25.3-.63.66-.38.36-.57.58-.57.66.24 0 .54.12.9.36 0-.2.05-.48.15-.84.1-.36.15-.64.15-.84zm-2.58.66v-3.3c0-.24-.08-.38-.24-.42-.04-.04-.16-.04-.36 0-.16 0-.24-.04-.24-.12 0 1.52-.14 2.72-.42 3.6h-1.08c.24.16 1.02.24 2.34.24zM95.3 75.44c-5.48-.04-13.62-.14-24.42-.3-.32-.4-.56-1.18-.72-2.34-.36-1.32-.82-3.3-1.38-5.94 0 .72.11 1.81.33 3.27.22 1.46.33 2.55.33 3.27 0 1.04-.22 1.64-.66 1.8-.64-.08-1.6-.28-2.88-.6v-4.98c0-1.2.24-2.74.72-4.62-.32-2.64-.44-5.8-.36-9.48l-.9-.42v20.4c1.76 0 3.02.12 3.78.36.12-.24.32-.56.6-.96.28.44.64 1.1 1.08 1.98 0 .16-.04-.06-.12-.66-.04-.32.02-.58.18-.78H95.3zM71.78 60.38v-3.9h-.6v3.9h.6zm.66 2.7l-1.08-2.64-.48.18 1.02 2.46h.54zm0 1.68v-1.2h-.6v1.2h.6zm-.36 1.68v-.9h-.54v.9h.54zm.36 1.32v-.9h-.6v.9h.6zM91.4 82.94c0-1.56-.53-2.95-1.59-4.17-1.06-1.22-2.37-1.83-3.93-1.83H74.72c.08.28.12.54.12.78 0 .52-.28 1.2-.84 2.04.52.48.78 1.72.78 3.72s-.26 3.56-.78 4.68h4.86c-.2 0-.32-.1-.36-.3-.04-.16.02-.32.18-.48-.52.12-1.12.32-1.8.6-.44-1.04-.96-1.56-1.56-1.56.04-.16.22-.42.54-.78.44.32 1 .86 1.68 1.62l-.06-.3c-.08-.24.1-.36.54-.36-.2 0-.3.02-.3.06 0 .12.6.38 1.8.78 1.68.56 2.68.84 3 .84 5.92 0 8.88-1.78 8.88-5.34zM74.42 78.2v-1.56h-.54v1.56h.54zM83 85.64c0 .32-.4.86-1.2 1.62v-1.62H83zm10.44 14.46l-.48-.3.84-1.2.42.3-.78 1.2zM72.98 78.5c-.32-.2-.74-.5-1.26-.9 0 .2-.12.5-.36.9h1.62zm25.14 22.98c-.24.76-.8 1.56-1.68 2.4.44.56.78 1.04 1.02 1.44-.76 0-1.18.02-1.26.06 0-.28-.12-.71-.36-1.29-.24-.58-.36-.99-.36-1.23s.12-.66.36-1.26.36-1 .36-1.2c.84.48 1.48.84 1.92 1.08zM69.26 96.5v-.6h-3.6v.6h3.6zm2.16-16.56h-.6v1.26h.6v-1.26zm16.8 14.28v-1.56h-.6v1.56h.6zm33.42-36.12h-.9v-.54h.9v.54zm.36 2.64c-.12.24-.21.68-.27 1.32-.06.64-.15 1.08-.27 1.32.08-1.04-.06-1.78-.42-2.22.44-.28.76-.42.96-.42zm.12 5.58h-.54v-2.58h.54v2.58zm-10.34 4.022c.013-.142.02-.283.02-.422 0 .4.02.52.06.36-.012.024-.04.045-.08.062zm0 0c-.063.672-.277 1.37-.64 2.098-.16-.16-.24-.34-.24-.54s.12-.42.36-.66c-.2-.2-.4-.3-.6-.3-.12 0-.22.04-.3.12 0-.2-.24-1.02-.72-2.46v-3.18c.04 0 .22-.06.54-.18.32-.12.58-.18.78-.18.44 0 .99.3 1.65.9.66.6.99 1.12.99 1.56v1.2l-.84-.66-.66.66c-.16-.16-.4-.26-.72-.3-.36-.04-.62.02-.78.18v1.26c.04.04.1.18.18.42 0 .08.16.12.48.12.25 0 .425-.02.52-.058zm1.52 1.018c-.44.24-.76.36-.96.36 0-.24.06-.58.18-1.02.12-.44.18-.76.18-.96.4.36.6.9.6 1.62zm8.7 26.52h-12.36V95.3h6V71.66c0-.92.46-2.06 1.38-3.42-.92-.64-1.38-1.42-1.38-2.34 0-.32-.04-.64-.12-.96-.04-.08-.2-.24-.48-.48-.16-.08-.4-.12-.72-.12-.96 0-1.44.34-1.44 1.02 0 .28.12.6.36.96-1.04-1.32-1.8-1.98-2.28-1.98-.24 0-.52.11-.84.33l-.48.33V50.3h12.3v6.96c-.32 0-.58-.1-.78-.3-.08.04-.36.26-.84.66-.32.24-.64.36-.96.36-.6 0-.9-.12-.9-.36l-.48.54c.36.32 1.26.54 2.7.66-.44 0-.88.22-1.32.66.12.16.34.2.66.12.2-.08.42-.14.66-.18 0 .76-.22 2.78-.66 6.06.44.44 1.1 1 1.98 1.68v30.72zm-11.04-19.92c-.12.16-.54.56-1.26 1.2 0-.44.06-1.11.18-2.01.12-.9.18-1.57.18-2.01.2.68.5 1.62.9 2.82zm1.08 1.8h-.48l-.42-.78.48-.18.42.96zm8.76 10.86h-.6v.9h.6v-.9zm-5.88 3.96h-2.22v-2.76c0-1.28-.24-2.06-.72-2.34.04-.28.22-1.06.54-2.34.24-1 .36-1.9.36-2.7 0-1.24-.3-2.4-.9-3.48.4-.44.66-1.16.78-2.16l.24-1.98h1.92v17.76zm-7.74-14.82c-.2-.2-.72-.3-1.56-.3v-1.32l1.56 1.62zm3.06 9.6h-1.62v-.6h1.62v.6zm-2.22.66l-.42.3-2.16-2.88.48-.3 2.1 2.88zM105.68 89l-.48.3-1.08-1.5.42-.36 1.14 1.56zm1.2 2.16h-.54l-.54-1.08.48-.24.6 1.32zm-11.1-11.22v-.6h-.9v.6h.9zm8.4 8.76h-1.56v-.6h1.56v.6zm1.44 2.22l-.3.42-1.5-1.14.3-.42 1.5 1.14zm-3.3-1.98l-.42 1.32-.48-.18.42-1.14h.48zM101 90.5l-.42-.96-.48.18.36.78h.54zm-2.52-2.46v-.6H96.2v.6h2.28zm1.38 2.34c-.96-.48-1.58-.98-1.86-1.5-.36.72-.66 1.18-.9 1.38.44-.32.74-.56.9-.72.44.56.78 1.02 1.02 1.38.4-.28.68-.46.84-.54zm-4.44-2.7v-.6h-1.2v.6h1.2zm-1.32 2.88c-.32-.6-.48-1.22-.48-1.86 0 .2-.28.3-.84.3.6.68 1.04 1.2 1.32 1.56zm-8.7-8.58c-.32.36-.48.64-.48.84-.08-.4-.8-1.5-2.16-3.3l2.64 2.46zm5.7 5.34l-1.2.54-.78-.9c.24 0 .58.06 1.02.18.44.12.76.18.96.18zm2.28-.78c0-.12-.12-.4-.36-.84-.24-.44-.36-.72-.36-.84-.08.76-.64 1.44-1.68 2.04l-5.16-4.68c1.12 1.12 1.78 1.92 1.98 2.4-.28.04-.54.06-.78.06-.2 0-.49-.06-.87-.18s-.63-.18-.75-.18c.32.24 1.26.5 2.82.78 1.08.2 1.62.6 1.62 1.2-.8.24-1.38.38-1.74.42 1.36.88 2.32 1.7 2.88 2.46-.08.2-.12.38-.12.54 0 .52.28 1.02.84 1.5 0-.52.26-.78.78-.78-.48-.28-.72-.7-.72-1.26 0-.24.32-1.24.96-3 .2 0 .42.12.66.36zm-11.4-7.44c0 .32-.04-.02-.12-1.02-.04-.56 0-.98.12-1.26-.24.56-.46 1.14-.66 1.74-.36.6-.84.9-1.44.9-.36 0-.54.16-.54.48 0 .12.02.26.06.42.36.28.64.44.84.48.12-.08.42-.42.9-1.02.4-.48.68-.72.84-.72zm2.16 3.06l-.3.48-1.86-1.5.3-.42 1.86 1.44zm-.72 1.98l-.18.48-1.14-.36v-.54l1.32.42zm4.182 7.403l.018.217c0-.07-.006-.14-.018-.217zM81.74 84.86l-.96.42v-.48l.78-.42.18.48zm-1.02.9l-.9-.9c0 .08.02.18.06.3.04.12.04.22 0 .3-.08.04-.24.06-.48.06-1.16 0-1.66-.18-1.5-.54-.08.28-.2.42-.36.42-.08 0-.42-.3-1.02-.9l-.84.96c1.36 0 2.38.1 3.06.3-.24.48-.7.88-1.38 1.2 1.24-.84 2.36-1.24 3.36-1.2zm-5.46-.42v-.6H73.7v.6h1.56zm-2.34-.36v-.6H70.7v.6h2.22zm-2.82-.54v-.9h-.6v.9h.6zm49.5-28.68v-.6h-1.86v.6h1.86zm-.12 6.54l-.48-.96-.42.18.36.78h.54zm.48 2.88v-.6l-1.56-.36v.54l1.56.42zm-7.38 2.28c-.04 0-.26.06-.66.18-.28.08-.5.06-.66-.06.28-.16.42-.26.42-.3-.16 0-.41.14-.75.42-.34.28-.55.5-.63.66 1.52-.52 2.28-.82 2.28-.9zm-3.96 24.18l-.78-.78.36-.36.84.84-.42.3zM86.6 86.36c-.68 0-1.34-.14-1.98-.42v-.9c-.08.56-.38.84-.9.84-.36 0-.58-.04-.66-.12.2 0 .3-.28.3-.84-.8.28-1.86.83-3.18 1.65s-2.32 1.37-3 1.65c3.24-1.36 5.26-2.04 6.06-2.04.36 0 .92.03 1.68.09.76.06 1.32.09 1.68.09zm84.42 6.06h-.9v.54h.9v-.54zm.72 3.48l-.42.84.42.24.48-.9-.48-.18zm-2.88.024c.08-.016.2-.024.36-.024.16 0 .38.06.66.18s.5.18.66.18c.28 0 .5-.18.66-.54.08-.2.16-.42.24-.66l-1.38-.48c-.6-.2-1.02-.42-1.26-.66.035.14.055.81.06 2.004zm-.48.816c-.28.28-.92.68-1.92 1.2-.12-.24-.25-.63-.39-1.17-.14-.54-.27-.93-.39-1.17.24.24 1.14.62 2.7 1.14zm-5.52-2.4h-1.26v-.6h1.26v.6zm-22.74.18c0-.24-.14-.56-.42-.96l-.96.66c-.04 0-.17-.05-.39-.15-.22-.1-.39-.15-.51-.15v1.32c.52-.48 1.28-.72 2.28-.72zm-7.68 1.8h-.6v.9h.6v-.9zm41.04-45.78c0 .24-.18.49-.54.75l-.54.39c-.28 0-.94-.52-1.98-1.56.44 0 .96-.02 1.56-.06.56-.04.92-.04 1.08 0 .28.08.42.24.42.48zm-2.94 11.88l-.48.9-.48-.18.42-.9.54.18zm-1.995.966c-.47.033-.705.19-.705.474 0 .12.04.26.12.42-.4-.24-.7-.36-.9-.36 0-.12.13-.31.39-.57.26-.26.39-.45.39-.57 0 .315.235.517.705.606zm0 0c.06-.004.126-.006.195-.006l.48.06c-.262 0-.487-.018-.675-.054zM153.08 54.74l-.18.54-1.14-.42v-.54l1.32.42zM145.52 59l-1.56-.36v-.6l1.56.42V59zm15.02 38.76h-.02.02zm1.952.053c.553-.145 1.126-.412 1.718-.803.94-.62 1.41-1.33 1.41-2.13 0-.8-.62-1.42-1.86-1.86l-2.34-.84c-.04.12-.2.3-.48.54-.28.24-.42.46-.42.66 0 .64-.38 1.14-1.14 1.5-.56 0-2.32-2.34-5.28-7.02.44-.08.79-.46 1.05-1.14.26-.68.39-1.28.39-1.8 0-.84-.24-1.46-.72-1.86.28.2.52.3.72.3.04-.04.06-.1.06-.18 0-.16-.16-.42-.48-.78.4 0 1 .2 1.8.6.04-.48-.66-1.84-2.1-4.08.72.68 1.66 1.7 2.82 3.06l.18-1.44c-.2-.04-.74-.43-1.62-1.17-.88-.74-1.42-1.11-1.62-1.11-.08 0-.45.12-1.11.36-.66.24-1.01.38-1.05.42-.48.56-.72 1.2-.72 1.92 0 1.12.4 1.68 1.2 1.68.16 0 .41-.04.75-.12.34-.08.59-.12.75-.12-.32.44-.88 1.26-1.68 2.46l.18.42c.08.28.24.42.48.42.2 0 .41-.05.63-.15l.33-.15c.04.2.18.5.42.9-.52 0-.78.26-.78.78-.32-.24-.89-.92-1.71-2.04s-1.23-1.82-1.23-2.1c0-.2.05-.48.15-.84.1-.36.15-.64.15-.84 0-.48-.32-.94-.96-1.38l-.66-.9c.32-.04.58.06.78.3.4-.4.6-.76.6-1.08-.4 0-.82-.22-1.26-.66-.48 1-.7 1.8-.66 2.4-.4-1.24-1.26-2.08-2.58-2.52.52-.48.78-.88.78-1.2 0 .24.2.36.6.36l-.24-1.38c-.2.08-.52.42-.96 1.02l-.72-.72c0 .2-.11.48-.33.84-.22.36-.43.54-.63.54s-.68-.45-1.44-1.35c-.76-.9-1.26-1.35-1.5-1.35-.2 0-.36.11-.48.33-.12.22-.3.33-.54.33-.24 0-.48-.06-.72-.18l-.36-.18-.54.84c-.48.56-.72 1.2-.72 1.92 0 1.12.44 1.68 1.32 1.68.24 0 .4-.06.48-.18.08-.12.22-.18.42-.18.2 0 .68.4 1.44 1.2.76.8 1.24 1.2 1.44 1.2.16 0 .36-.04.6-.12.24-.08.38-.12.42-.12-1.96 1.84-2.92 3.06-2.88 3.66 0-1.12-.04-1.44-.12-.96.04-.24.24-.46.6-.66v-2.58c-.24-.16-.76-.32-1.56-.48-.8-.16-1.28-.32-1.44-.48-.52-.36-1.38-.92-2.58-1.68-.32-.2-1.1-.54-2.34-1.02-.08.08-.16.14-.24.18v.54c0 .28.24.7.72 1.26.64.76 1.02 1.24 1.14 1.44.28-.4.36-1.06.24-1.98.68 0 .96.14.84.42.44.88.86 1.76 1.26 2.64.44.72 1.14 1.24 2.1 1.56.36.08.64.06.84-.06-.32 0-.48.22-.48.66 0-.36-.3-.54-.9-.54-.48 0-.92.62-1.32 1.86-.04.04-.06.1-.06.18 0 .12.08.24.24.36.36-.24.84-.58 1.44-1.02v1.32c-.56 0-.94-.1-1.14-.3-.12.12-.2.32-.24.6-.04.28-.12.48-.24.6.32.32.72.48 1.2.48.28 0 .74-.32 1.38-.96 0 .4.22.96.66 1.68.2-.16.3-.34.3-.54 0 3.04-.18 5.12-.54 6.24 0 .28-.26.42-.78.42-.24 0-.38-.04-.42-.12 0-.04.03-.1.09-.18.06-.08.09-.16.09-.24 0-.08-.04-.14-.12-.18v-.06c-.12 0-.18.2-.18.6 0 .24.18.62.54 1.14l.72 1.08c.12 0 .24-.11.36-.33.12-.22.24-.33.36-.33v3.3c-.36 0-.89-.1-1.59-.3-.7-.2-1.23-.3-1.59-.3-.2 0-.3.04-.3.12 0 .08.04.2.12.36 0 .12-.1.18-.3.18h-.66c-.28 0-.44-.08-.48-.24l-.12-.48c-.28 0-.42.06-.42.18 0 .08.1.22.3.42-3.32 0-5.8-.14-7.44-.42.68 0 1.12-.1 1.32-.3-.04-.04-.18-.12-.42-.24s-.36-.22-.36-.3l.12-.12c-.52-.4-.78-1.16-.78-2.28 0-1.16.38-1.8 1.14-1.92v-24c-.32-.12-.9-.38-1.74-.78.48 0 .72-.36.72-1.08 1.8 0 2.92-.08 3.36-.24-.44-.12-1.54-.18-3.3-.18V51.74c.4.28.85.63 1.35 1.05.5.42.93.63 1.29.63 1.32 0 2.46-.46 3.42-1.38.16-.48.4-1.14.72-1.98l4.32.84c-.12 0-.34.17-.66.51-.32.34-.58.51-.78.51-.2 0-.44-.06-.72-.18l-.54.54c1.12 1.68 1.98 2.52 2.58 2.52.2 0 .47-.05.81-.15.34-.1.55-.15.63-.15l.3 11.88.6-.72c.24.24.52.36.84.36.44 0 2.62-2.32 6.54-6.96l7.5-8.88c.4-.08 1.28-.12 2.64-.12 1.28 0 2.26.1 2.94.3.12 0 .46.58 1.02 1.74.28-.16 1.12-.24 2.52-.24-.16-.12-.5-.7-1.02-1.74.24 0 .52.32.84.96l.72-.6c.28-.28.54-.42.78-.42.2 0 .49.17.87.51.38.34.67.51.87.51l.66.9c-.08 0-.32-.06-.72-.18-.28-.08-.5-.04-.66.12l.09.42c.06.28.21.42.45.42.16 0 .37-.04.63-.12.26-.08.43-.12.51-.12l-1.32 1.5c0 .28.06.42.18.42.12-.04.26-.14.42-.3-.28.44-.42.76-.42.96-.04-.12-.16-.34-.36-.66-3.24 3.28-5.9 6.08-7.98 8.4 0 .76.22 1.14.66 1.14.36 0 .58-.12.66-.36l.12-.3.78.66c.52-.28 1-.42 1.44-.42.36 0 .72.1 1.08.3.56 0-1.24.22-5.4.66.36.28.94.8 1.74 1.56-.24-.24-.64-.5-1.2-.78-.84-.4-1.3-.62-1.38-.66-.2.08-.5.24-.9.48.36.24.93.6 1.71 1.08.78.48 1.35.84 1.71 1.08-.84-.44-2.02-.98-3.54-1.62l-3.24 3.24.96 1.08c-.52-.12-1.08-.02-1.68.3.32.12 1 .18 2.04.18 0 .28.24.66.72 1.14l-.21.78c-.14.52-.35.78-.63.78-.32 0-.52-.08-.6-.24-.04-.04-.14-.02-.3.06.2.56.6 1.3 1.2 2.22.08-.56.3-1.24.66-2.04.92.32 1.94 1.36 3.06 3.12l2.64 4.14c-.04.12-.06.32-.06.6 0 .24.02.58.06 1.02-.08.08-.12.14-.12.18 0 .08.18.12.54.12.36 0 .56-.04.6-.12l.12-.24 5.22 7.74c-.6 0-1.08.36-1.44 1.08l-.72-.66c-.12.12-.46.18-1.02.18.36 0 .64-.1.84-.3l-1.5-.24c-.08.08-.17.22-.27.42-.1.2-.19.34-.27.42.28.16.68.68 1.2 1.56 1.12-.36 2.02-1.04 2.7-2.04 1.16.96 1.78 1.5 1.86 1.62.56.48 1 1.18 1.32 2.1h-1.08c-.08.16-.26.44-.54.84.12.16.24.24.36.24.16 0 .3-.18.42-.54.8-.08 1.58.36 2.34 1.32.52.84 1.06 1.66 1.62 2.46l-13.688-.367zm0 0c-.324.085-.64.127-.952.127-.12 0-.3-.03-.54-.09-.222-.055-.375-.085-.46-.09l1.952.053zm-.952-12.233c-1.36-.88-2.04-1.62-2.04-2.22 0-.28.16-.56.48-.84.32-.28.62-.54.9-.78-.24 0-.62-.02-1.14-.06l-.9-.9c.12-.08.2-.1.24-.06.12.16.32.24.6.24.24 0 .46-.12.66-.36s.36-.36.48-.36v-1.26c-.12 0-.2.08-.24.24-.32.36-.6.6-.84.72l-.78-.66c0 .16-.19.44-.57.84-.38.4-.57.68-.57.84 0 .96.46 1.9 1.38 2.82-.16 0-.4-.06-.72-.18-.32-.12-.54-.18-.66-.18.96.96 1.52 1.54 1.68 1.74-.2.12-.3.24-.3.36 0 .08.14.22.42.42.28.04.63-.01 1.05-.15.42-.14.71-.21.87-.21zm-9.72-8.28h-.6v1.56h.6V77.3zm-6.06-3.06h-.6l-.42 1.56h.6l.42-1.56zm-4.8 5.82l-.48.96-.48-.24.48-.84.48.12zm-7.86-7.68l-.84.84.3.36.9-.84-.36-.36zm7.8 16.8h-.54l.36 1.56h.6l-.42-1.56zm28.74-36.6v-.6l-1.56-.42v.6l1.56.42zm-1.5 3.18V54.5h-.6v1.26h.6zm-1.74-.36l-.36-1.32-.54.18.42 1.14h.48zm-5.52-1.38c-.52-.28-1.16-.7-1.92-1.26 0 .16-.07.44-.21.84-.14.4-.21.68-.21.84l2.34-.42zm-.36.84c-.44.24-.84.36-1.2.36-.28 0-.56-.08-.84-.24.12 0 .23.24.33.72s.15.74.15.78c.4-.44.92-.98 1.56-1.62zm.36 2.88c-.52-.24-1.04-.6-1.56-1.08v1.08h1.56zm-1.56 2.1l-.48-1.02-.48.24.42.78h.54zm.66-.12l-.48-.18-.42.84.48.24.42-.9zm11.82 15.9l-1.14-1.2.36-.36 1.14 1.2-.36.36zm-4.32.06c0-.56-.22-.84-.66-.84-.2 0-.34.11-.42.33-.08.22-.22.33-.42.33l-.3-.72c.04 0 .2.14.48.42l.66-.72c.44.48.66.88.66 1.2zm-12.42-5.1v-.6h-.9v.6h.9zm5.76 7.62v-1.98c-1 .44-1.66.96-1.98 1.56.24.2.38.46.42.78.16 0 .37-.07.63-.21.26-.14.45-.21.57-.21.12 0 .24.02.36.06zm-10.86-9.36v-.54h-.9v.54h.9zm16.56 18.24c0-.36-.48-1.5-1.44-3.42l-.42 2.28c.52.24 1.14.62 1.86 1.14zm-7.86-9.12h-.6l-.42 1.56h.6l.42-1.56zM146.24 66.8v-.54h-1.26v.54h1.26zm15.96 16.44l-.72-.9c-.24 0-.56.18-.96.54.2 0 .49.06.87.18s.65.18.81.18zm-14.64-13.86v-1.62c-.56.24-1.1.88-1.62 1.92.2 0 .47-.05.81-.15.34-.1.61-.15.81-.15zm16.38 16.86c-.32-.16-.74-.44-1.26-.84.2 1.16.3 1.82.3 1.98.12 0 .32-.2.6-.6l.36-.54zm-20.76-16.08c.386.093.907.513 1.56 1.26.32-.68 1-1.02 2.04-1.02s1.66.08 1.86.24c-.04.16-.2.42-.48.78-.24-.2-.52-.28-.84-.24.16.28.24.54.24.78 0 .36-.26.78-.78 1.26s-.8.76-.84.84c.52.52.94.78 1.26.78.44-.68 1.22-1.82 2.34-3.42.96.48 1.66.7 2.1.66 0-.24-.1-.48-.3-.72l-.3-.36c.48-.48.82-.72 1.02-.72-1.96-.28-4.34-.42-7.14-.42.64-.64.96-1.34.96-2.1-.64.24-1.14.78-1.5 1.62-.2-.2-.46-.28-.78-.24.32.32.48.58.48.78 0 .12-.02.2-.06.24h-.84zm1.02-3.72c-.16 0-.42.05-.78.15-.36.1-.62.15-.78.15v1.8c.08-.4.6-1.1 1.56-2.1zm7.62 10.02V74.9h-.6v1.56h.6zm-.66-1.2h-.6l-.36 1.56h.54l.42-1.56zm-.72.06l-.48-.18-.42.9.48.18.42-.9zm15.54 15.6c-.64-.12-1.52-.48-2.64-1.08.12.56.36 1.34.72 2.34 1.04-.52 1.68-.94 1.92-1.26zm-5.1-4.2l-1.32-.42v.48l1.14.42.18-.48zm-11.46-9.24v-1.2h-.54v1.2h.54zM139.4 66.8v-.6h-1.92v.6h1.92zm21.12 20.7h-1.14c.2.04.3.52.3 1.44 0-.24.14-.54.42-.9l.42-.54zM141.8 70.58v-.6h-1.26v.6h1.26zm1.92 1.62h-.6l-.42 1.56h.6l.42-1.56zm-4.62-3.36v-.54h-.96v.54h.96zm18.66 20.28v-1.26c-.16-.2-.54-.3-1.14-.3.04 0 .2.24.48.72.28.48.5.76.66.84zm-20.4-20.28v-.6h-1.92v.6h1.92zm-2.34-2.04v-.54h-1.26v.54h1.26zm21.12 21.96l-1.32-.42v.48l1.14.42.18-.48zm-13.32-11.58l-.42-.84.48-.18.42 1.02h-.48zm-7.8-8.34v-.54h-.96v.54h.96zm14.7 13.92c-.08-.08-.32-.12-.72-.12-.32 0-.88.32-1.68.96-.8.64-1.34 1-1.62 1.08-.36-1-.6-1.78-.72-2.34.64.68 1.46 1.02 2.46 1.02.12 0 .3-.17.54-.51.24-.34.52-.51.84-.51.52 0 .82.14.9.42zm-15.54-10.68v-1.92h-.6v1.92h.6zm-1.92-1.5v-.6h-.9v.6h.9zm8.94 11.46l-.48-.24.42-.84.48.12-.42.96zm-3.12 1.14c-.36-.56-.84-1.42-1.44-2.58-.8.64-1.3 1.44-1.5 2.4.4-.76.84-1.12 1.32-1.08.16.4.24.72.24.96 0 .2-.06.36-.18.48-.44 0-.78-.12-1.02-.36 0 .56-.14.98-.42 1.26.48 0 .86.14 1.14.42.28-.12.9-.62 1.86-1.5zm1.38 6.18c-.28-.4-.46-.95-.54-1.65-.08-.7-.16-1.13-.24-1.29-.88.44-1.52.66-1.92.66-.36 0-.94-.2-1.74-.6 0-1.28-.04-1.98-.12-2.1-.36.28-1.56.42-3.6.42.48.24 1.06.6 1.74 1.08-.08.04-.12.08-.12.12l.24.24c.12.2.18.42.18.66 0 1.08.08 1.7.24 1.86 0-.08-.02-.18-.06-.3-.04-.12-.04-.2 0-.24.08-.08.26-.12.54-.12.32 0 .48.18.48.54l-.12 1.08.15-.3c.1-.2.21-.3.33-.3.56 0 .84-.22.84-.66 0-.04-.04-.06-.12-.06-.04 0-.08.02-.12.06-.36-.16-.86-.44-1.5-.84l2.22-.18c.36.2.54.4.54.6 0 .12-.04.24-.12.36-.08.12-.12.2-.12.24 0 .08.24.12.72.12l.42.3c.28.2.88.3 1.8.3zm-7.5-3.06c.04 0 .06.02.06.06 0 .08-.05.2-.15.36-.1.16-.32.28-.66.36-.34.08-.51.18-.51.3.04.12.04.22 0 .3 0-.2-.06-.51-.18-.93-.12-.42-.18-.75-.18-.99.56 0 1.06.22 1.5.66l.12-.12zm3.18 4.98l-.84-.9-.36.36.84.84.36-.3zm23.88 2.94h-.6v-1.56h.6v1.56zm33.42-36.12h-.9v-.54h.9v.54zm.36 2.64c-.12.24-.21.68-.27 1.32-.06.64-.15 1.08-.27 1.32.08-1.04-.06-1.78-.42-2.22.44-.28.76-.42.96-.42zm.12 5.58h-.54v-2.58h.54v2.58zm-10.34 4.022c.013-.142.02-.283.02-.422 0 .4.02.52.06.36-.012.024-.04.045-.08.062zm0 0c-.063.672-.277 1.37-.64 2.098-.16-.16-.24-.34-.24-.54s.12-.42.36-.66c-.2-.2-.4-.3-.6-.3-.12 0-.22.04-.3.12 0-.2-.24-1.02-.72-2.46v-3.18c.04 0 .22-.06.54-.18.32-.12.58-.18.78-.18.44 0 .99.3 1.65.9.66.6.99 1.12.99 1.56v1.2l-.84-.66-.66.66c-.16-.16-.4-.26-.72-.3-.36-.04-.62.02-.78.18v1.26c.04.04.1.18.18.42 0 .08.16.12.48.12.25 0 .425-.02.52-.058zm1.52 1.018c-.44.24-.76.36-.96.36 0-.24.06-.58.18-1.02.12-.44.18-.76.18-.96.4.36.6.9.6 1.62zm8.7 26.52h-12.36V95.3h6V71.66c0-.92.46-2.06 1.38-3.42-.92-.64-1.38-1.42-1.38-2.34 0-.32-.04-.64-.12-.96-.04-.08-.2-.24-.48-.48-.16-.08-.4-.12-.72-.12-.96 0-1.44.34-1.44 1.02 0 .28.12.6.36.96-1.04-1.32-1.8-1.98-2.28-1.98-.24 0-.52.11-.84.33l-.48.33V50.3h12.3v6.96c-.32 0-.58-.1-.78-.3-.08.04-.36.26-.84.66-.32.24-.64.36-.96.36-.6 0-.9-.12-.9-.36l-.48.54c.36.32 1.26.54 2.7.66-.44 0-.88.22-1.32.66.12.16.34.2.66.12.2-.08.42-.14.66-.18 0 .76-.22 2.78-.66 6.06.44.44 1.1 1 1.98 1.68v30.72zm-11.04-19.92c-.12.16-.54.56-1.26 1.2 0-.44.06-1.11.18-2.01.12-.9.18-1.57.18-2.01.2.68.5 1.62.9 2.82zm1.08 1.8h-.48l-.42-.78.48-.18.42.96zm8.76 10.86h-.6v.9h.6v-.9zm-5.88 3.96h-2.22v-2.76c0-1.28-.24-2.06-.72-2.34.04-.28.22-1.06.54-2.34.24-1 .36-1.9.36-2.7 0-1.24-.3-2.4-.9-3.48.4-.44.66-1.16.78-2.16l.24-1.98h1.92v17.76zm-7.74-14.82c-.2-.2-.72-.3-1.56-.3v-1.32l1.56 1.62zm3.06 9.6h-1.62v-.6h1.62v.6zm-2.22.66l-.42.3-2.16-2.88.48-.3 2.1 2.88zM176.48 89l-.48.3-1.08-1.5.42-.36 1.14 1.56zm1.2 2.16h-.54l-.54-1.08.48-.24.6 1.32zm-11.1-11.22h-.9v-.6h.9v.6zm8.4 8.76h-1.56v-.6h1.56v.6zm1.44 2.22l-.3.42-1.5-1.14.3-.42 1.5 1.14zm-3.3-1.98l-.42 1.32-.48-.18.42-1.14h.48zm-1.32 1.56h-.54l-.36-.78.48-.18.42.96zm-2.52-2.46H167v-.6h2.28v.6zm1.38 2.34c-.16.08-.44.26-.84.54-.24-.36-.58-.82-1.02-1.38-.16.16-.46.4-.9.72.24-.2.54-.66.9-1.38.28.52.9 1.02 1.86 1.5zm-4.44-2.7v-.6h-1.2v.6h1.2zm-1.32 2.88c-.32-.6-.48-1.22-.48-1.86 0 .2-.28.3-.84.3.6.68 1.04 1.2 1.32 1.56zm-8.7-8.58c-.32.36-.48.64-.48.84-.08-.4-.8-1.5-2.16-3.3l2.64 2.46zm5.7 5.34l-1.2.54-.78-.9c.24 0 .58.06 1.02.18.44.12.76.18.96.18zm2.28-.78c-.24-.24-.46-.36-.66-.36-.64 1.76-.96 2.76-.96 3 0 .56.24.98.72 1.26-.52 0-.78.26-.78.78-.56-.48-.84-.98-.84-1.5 0-.16.04-.34.12-.54-.56-.76-1.52-1.58-2.88-2.46.36-.04.94-.18 1.74-.42 0-.6-.54-1-1.62-1.2-1.56-.28-2.5-.54-2.82-.78.12 0 .37.06.75.18s.67.18.87.18c.24 0 .5-.02.78-.06-.2-.48-.86-1.28-1.98-2.4l5.16 4.68c1.04-.6 1.6-1.28 1.68-2.04 0 .12.12.4.36.84.24.44.36.72.36.84zm-11.4-7.44c-.16 0-.44.24-.84.72-.48.6-.78.94-.9 1.02-.2-.04-.48-.2-.84-.48-.04-.16-.06-.3-.06-.42 0-.32.18-.48.54-.48.6 0 1.08-.3 1.44-.9.2-.6.42-1.18.66-1.74-.12.28-.16.7-.12 1.26.08 1 .12 1.34.12 1.02zm2.16 3.06l-.3.48-1.86-1.5.3-.42 1.86 1.44zm-.72 1.98l-.18.48-1.14-.36v-.54l1.32.42zm4.182 7.403l.018.217c0-.07-.006-.14-.018-.217zm-5.862-6.683l-.96.42v-.48l.78-.42.18.48zm-1.02.9c-1-.04-2.12.36-3.36 1.2.68-.32 1.14-.72 1.38-1.2-.68-.2-1.7-.3-3.06-.3l.84-.96c.6.6.94.9 1.02.9.16 0 .28-.14.36-.42-.16.36.34.54 1.5.54.24 0 .4-.02.48-.06.04-.08.04-.18 0-.3s-.06-.22-.06-.3l.9.9zm-5.46-.42h-1.56v-.6h1.56v.6zm-2.34-.36h-2.22v-.6h2.22v.6zm-2.82-.54h-.6v-.9h.6v.9zm49.5-28.68v-.6h-1.86v.6h1.86zm-.12 6.54l-.48-.96-.42.18.36.78h.54zm.48 2.88v-.6l-1.56-.36v.54l1.56.42zm-7.38 2.28c-.04 0-.26.06-.66.18-.28.08-.5.06-.66-.06.28-.16.42-.26.42-.3-.16 0-.41.14-.75.42-.34.28-.55.5-.63.66 1.52-.52 2.28-.82 2.28-.9zm-3.96 24.18l-.78-.78.36-.36.84.84-.42.3zm-22.02-5.28c-.36 0-.92-.03-1.68-.09-.76-.06-1.32-.09-1.68-.09-.8 0-2.82.68-6.06 2.04.68-.28 1.68-.83 3-1.65s2.38-1.37 3.18-1.65c0 .56-.1.84-.3.84.08.08.3.12.66.12.52 0 .82-.28.9-.84v.9c.64.28 1.3.42 1.98.42zm61.44 5.58h-.54v-1.56h.54v1.56zm-7.02-2.22h-.6v1.26h.6v-1.26zm-3.36 2.34h-.6v.9h.6v-.9zm18.96-30.42l-1.56-.36v-.6l1.56.42v.54zm2.34 4.56c-1.2-.4-2.18-1-2.94-1.8v-1.2h1.2l1.74 1.74v1.26zm-15.48-9.36l-.42 1.56h.6l.42-1.56h-.6zm2.34 4.26l-.3.36.78.78.36-.3-.84-.84zm-6.66-4.14l-1.92-.36V56l1.92.36v.6zm15.96 16.68h-.6v.9h.6v-.9zm-20.1-18.66c-.48-.24-1.2-.72-2.16-1.44h1.26c.2.36.5.84.9 1.44zm24.84 25.68l-.18 1.26h.6l.18-1.26h-.6zm.78.9l-.78 1.14.48.36.78-1.2-.48-.3zm-12.6-11.94h-.54v.9h.54v-.9zm-9.36-8.52H209l-.42-.78.48-.18.42.96zm-5.1-6l-1.2.84-.3-.48 1.2-.78.3.42zm11.7 12.66c-.16-.4-.24-.78-.24-1.14 0-.24.04-.48.12-.72-1 1.08-1.74 1.94-2.22 2.58 1.04-.36 1.82-.6 2.34-.72zm8.82 10.14h-.54l-.36-1.14.48-.18.42 1.32zm2.562.243c.212.273.318.572.318.897l-.318-.897zM206.84 53.12c-.2 0-.37.11-.51.33-.14.22-.31.33-.51.33-.24 0-.72-.24-1.44-.72-.92-.6-1.42-.92-1.5-.96-.2.32-.3.64-.3.96.04.2.12.3.24.3s.28-.06.48-.18l-.9.96c0-.52-.08-.86-.24-1.02-.16.24-.24.46-.24.66-.4-.24-.7-.36-.9-.36v-2.94h12.6l11.04 19.08c.28-.2.64-.3 1.08-.3 0 .16.06.42.18.78.12.36.18.62.18.78-1.16.48-1.94 1-2.34 1.56.04.04.1.18.18.42 0 .08.16.12.48.12l1.2-.36c.678 0 1.018.956 1.02 2.867-.014-.56-.354-.827-1.02-.827-.2 0-.918.538-2.154 1.615.244-.28.354-.81.354-1.615.32 0 .58.1.78.3l.54-.54v-1.2c-.52 0-.78.34-.78 1.02-.48-.08-.89-.33-1.23-.75-.34-.42-.45-.85-.33-1.29l-.57.54c-.38.36-.71.54-.99.54-.48 0-.72-.22-.72-.66v-.06c-.08 0-.12.2-.12.6 0 .92.88 2.38 2.64 4.38 1.76 2 2.64 3.26 2.64 3.78 0 .32-.08.6-.24.84.16.08.44.26.84.54.04-.12.26-.4.66-.84.28-.32.42-.64.42-.96 0-.12-.01-.25-.033-.392.052.377.388.89.993 1.532.24-.12.62-.72 1.14-1.8-.72-.48-1.5-.72-2.34-.72-.035-.363-.08-.767-.137-1.212-.027.056-.04.116-.043.18 0-.222-.003-.4-.007-.558-.066-.486-.143-1.016-.233-1.59.04-.04.06-.08.06-.12l.363 1.025c.154.077.293.115.417.115.08-.08.12-.16.12-.24 0-.12-.08-.32-.24-.6-.16-.28-.24-.46-.24-.54 1.16.84 1.74 1.54 1.74 2.1 0 .36-.16.72-.48 1.08.56.56 1.06.84 1.5.84.417 0 .653-.12.708-.362-.023.06-.08.276-.168.602-.04.16 0 .3.12.42.4-.48.6-.9.6-1.26 0-.2-.12-.48-.36-.84s-.36-.62-.36-.78V50.48h11.34V98h-12.6l-9.06-16.38c-.52 0-.78-.16-.78-.48 0-.16.12-.28.36-.36-1.12-1.12-1.68-2.12-1.68-3 0-.48.68-1.72 2.04-3.72.08-.12.02-.28-.18-.48-.44.52-1.22 1.42-2.34 2.7-.64-.28-1.18-1.1-1.62-2.46l-.9-2.82c.8-.68 1.2-1.34 1.2-1.98 0-.16-.02-.32-.06-.48-.2.16-.62.84-1.26 2.04-.48-.36-1-.96-1.56-1.8-.68-.96-1.18-1.6-1.5-1.92l-.54.6c0 .04.16.24.48.6.32.36.5.6.54.72-.28.12-.58.26-.9.42 0-.24-.06-.58-.18-1.02-.12-.44-.18-.78-.18-1.02l-1.08.36v-4.44l-.48-.6c-.12.92-.7 3.16-1.74 6.72.2-1.08.6-2.7 1.2-4.86 0-.44-.06-.72-.18-.84-.12.12-.26.18-.42.18-.24 0-.48-.12-.72-.36.84-.48 1.2-.96 1.08-1.44.56.32 1.44.82 2.64 1.5-.32-.6-.78-1.42-1.38-2.46.16 0 .56.3 1.2.9.08-.08.16-.22.24-.42.08-.2.16-.34.24-.42-.88-.8-1.98-1.94-3.3-3.42 1.08.52 1.82 1.18 2.22 1.98.52 0 .78-.22.78-.66.68 0 1.18.32 1.5.96.16-.16.24-.36.24-.6 0-.36-.26-.54-.78-.54.6-.6.94-.92 1.02-.96-.533-.084-1.248-.283-2.16-.6-.12.12-.19.34-.21.66-.02.32-.09.54-.21.66 0-.4-.02-.78-.06-1.14.04-.4.24-.74.6-1.02-.24-.28-.48-.42-.72-.42-.16 0-.32.08-.48.24 0-.685-.1-1.12-.3-1.32-.44.2-1.24.52-2.4.96-.04-.2-.06-.38-.06-.54 0-.4.1-.8.3-1.2l-.24-.54c-.08-.24-.28-.36-.6-.36zm5.88 12.54c-.12-.2-.18-.68-.18-1.44 0-.64-.12-1.1-.36-1.38-.44 1.28-1.04 2.6-1.8 3.96h1.2c.76-.64 1.14-1.02 1.14-1.14zm17.7 19.38l-.6 1.44.48.18.6-1.62h-.48zM202.46 58.1l-.48.3-1.14-1.68.48-.3 1.14 1.68zm26.76 26.58h-.54v1.26h.54v-1.26zm-.78 1.38c-.6.32-1.12.48-1.56.48-.24 0-.46-.06-.66-.18 0 .2.12.52.36.96.8-.4 1.42-.82 1.86-1.26zm-21-21.12l-.72 3.54h-.48l.66-3.54h.54zm-1.68 3.54h-.54v-4.26h.54v4.26zm12.78 13.08h-.6l-.36-1.56h.6l.36 1.56zm8.1 8.28c-.28-.32-.56-.48-.84-.48 0 .16.2.49.6.99.4.5.58.83.54.99 0-.2.18-.38.54-.54l-.84-.96zm-12-8.1l-2.22-.36v-.54l2.22.36v.54zm-4.08-12.335c-.326-.303-.606-.57-.84-.805.48.48.76.74.84.78v.025zm-1.314 17.214c-.044-.16-.066-.325-.066-.5 0-.12.04.02.12.42.017.033 0 .06-.054.08zm1.313-17.215c.284.265.605.557.96.875.12.4.18.88.18 1.44 0 1.16-.34 2.89-1.02 5.19-.68 2.3-1.02 3.91-1.02 4.83v1.02l.6.54c.12 0 .34-.04.66-.12.24-.08.36-.06.36.06-.28.12-.86.14-1.74.06-.12.12-.18.24-.18.36 0 .16.1.34.3.54-.4-.04-.84.4-1.32 1.32 0 .92-.02 1.14-.06.66.04.32.22.48.54.48.21 0 .352-.014.426-.04.157.563.595 1.016 1.314 1.36.28 0 .24.04-.12.12-.24.08-.44.04-.6-.12-.56.6-.84.96-.84 1.08.16.04.38.06.66.06.24 0 .57-.02.99-.06.42-.04.75-.06.99-.06.28 0 .5.02.66.06V98h-11.28V65.06c-.04-.16.22-.88.78-2.16.56-1.28.86-2.18.9-2.7.64.24 1.06.36 1.26.36-.28.48-.68 1.5-1.2 3.06-.52 1.56-.78 2.58-.78 3.06 0 1.24.38 1.86 1.14 1.86.52 0 .8.28.84.84-.12.4-.18.8-.18 1.2 0 .2.02.42.06.66.4-.4.64-.62.72-.66.12.16.12.52 0 1.08-.12.6-.14 1.02-.06 1.26.12-.12.3-.16.54-.12.48.08.8.12.96.12.2 0 .79-.62 1.77-1.86.98-1.24 1.57-1.86 1.77-1.86.28 0 .5.06.66.18l.24.18c.072-.036.11-.088.12-.155zm19.56-1.045c-1.04.56-1.88.84-2.52.84-.56 0-1.36-.47-2.4-1.41-1.04-.94-1.62-1.69-1.74-2.25h1.44c-.04 0 .52.35 1.68 1.05 1.16.7 2.1 1.03 2.82.99 0 .52.24.78.72.78zM212.3 55.22c-.72-.6-1.22-1.04-1.5-1.32-.52-.52-.86-1-1.02-1.44v1.26c.64.36 1.48.86 2.52 1.5zm-4.38-2.46c-.44-.88-.92-1.32-1.44-1.32-.2 0-.34.32-.42.96.24-.08.48-.12.72-.12.44 0 .82.16 1.14.48zm14.22 16.8l-.18-.48-.84.42v.48l1.02-.42zm-9-6.78l-.42-.96-.48.18.42.78h.48zm3.72 4.38l-.36-2.22h-.6l.36 2.22h.6zm2.82 2.16v-.54h-.9v.54h.9zM215 64.7v-.6l-1.56-.42v.6l1.56.42zm3.78 3.84l-.9-.48-.18.48.9.48.18-.48zm-4.14-3.66c-.76 0-1.26-.12-1.5-.36 0 .2-.14.52-.42.96-.32 0-.06-.08.78-.24.36-.08.54.08.54.48 0 .28-.13.57-.39.87-.26.3-.51.45-.75.45.8 0 1.28-.1 1.44-.3 0-.2.05-.51.15-.93.1-.42.15-.73.15-.93zm-9-2.76c-.8 0-1.34.14-1.62.42.12-.12.3-.35.54-.69.24-.34.42-.57.54-.69.36 0 .54.32.54.96zm20.94 22.44l-.36-1.86h-.6l.36 1.86h.6zm-25.2-21.42h-.54l.36-1.56h.6l-.42 1.56zm2.88.06c-.2.76-.3 1.52-.3 2.28 0 .68.08 1.36.24 2.04-.6-.96-.9-1.68-.9-2.16 0-.84.32-1.56.96-2.16zm12.36 16.86l-.3-.48 1.2-.78.3.48-1.2.78zm-11.7-10.26l-.36-1.08.48-.18.42 1.26h-.54zm14.46 14.76c-.6-.08-1.22.06-1.86.42-.48-.88-.84-1.52-1.08-1.92.36 0 .76.42 1.2 1.26.68-.12 1.02-.24 1.02-.36s-.14-.3-.42-.54c.48 0 .86.38 1.14 1.14zm-3.48-1.44c-.12 0-.31-.04-.57-.12-.26-.08-.45-.12-.57-.12.32-.28.48-.54.48-.78 0 .68.22 1.02.66 1.02zm-3.78-1.02l-1.5-1.14.3-.48 1.5 1.14-.3.48zm1.018 1.207c-.013-.296-.072-.638-.178-1.027.28.28.42.54.42.78-.087.087-.167.17-.242.247zm0 0l.002.113c0 .24-.04.46-.12.66.36.24.68.36.96.36.44 0 .88-.26 1.32-.78 0 .64-.48 1.18-1.44 1.62l-.66-.66c-.08.08-.22.33-.42.75-.2.42-.44.63-.72.63-.16 0-.42-.03-.78-.09-.36-.06-.62-.09-.78-.09.36 0 1.2-.44 2.52-1.32-.2-.16-.4-.24-.6-.24 0-.138.24-.456.718-.953zm2.222 4.973l-.78-1.44.48-.24.78 1.68h-.48zm-3.3-.9l-.48-.24.42-.84.48.18-.42.9zm3.72 4.92l-.18-2.94h.54l.18 2.94h-.54zm-7.14-2.28c-.24 0-.57-.04-.99-.12-.42-.08-.75-.12-.99-.12l.66.72c-.2.2-.52.3-.96.3.44.12 1.18.52 2.22 1.2v-1.08c0-.2.02-.4.06-.6v-.3zm19.68 4.2v-1.56h-.6v1.56h.6zm33.42-36.12h-.9v-.54h.9v.54zm.36 2.64c-.12.24-.21.68-.27 1.32-.06.64-.15 1.08-.27 1.32.08-1.04-.06-1.78-.42-2.22.44-.28.76-.42.96-.42zm.12 5.58h-.54v-2.58h.54v2.58zm-10.34 4.022c.013-.142.02-.283.02-.422 0 .4.02.52.06.36-.012.024-.04.045-.08.062zm0 0c-.063.672-.277 1.37-.64 2.098-.16-.16-.24-.34-.24-.54s.12-.42.36-.66c-.2-.2-.4-.3-.6-.3-.12 0-.22.04-.3.12 0-.2-.24-1.02-.72-2.46v-3.18c.04 0 .22-.06.54-.18.32-.12.58-.18.78-.18.44 0 .99.3 1.65.9.66.6.99 1.12.99 1.56v1.2l-.84-.66-.66.66c-.16-.16-.4-.26-.72-.3-.36-.04-.62.02-.78.18v1.26c.04.04.1.18.18.42 0 .08.16.12.48.12.25 0 .425-.02.52-.058zm1.52 1.018c-.44.24-.76.36-.96.36 0-.24.06-.58.18-1.02.12-.44.18-.76.18-.96.4.36.6.9.6 1.62zm8.7 26.52h-12.36V95.3h6V71.66c0-.92.46-2.06 1.38-3.42-.92-.64-1.38-1.42-1.38-2.34 0-.32-.04-.64-.12-.96-.04-.08-.2-.24-.48-.48-.16-.08-.4-.12-.72-.12-.96 0-1.44.34-1.44 1.02 0 .28.12.6.36.96-1.04-1.32-1.8-1.98-2.28-1.98-.24 0-.52.11-.84.33l-.48.33V50.3h12.3v6.96c-.32 0-.58-.1-.78-.3-.08.04-.36.26-.84.66-.32.24-.64.36-.96.36-.6 0-.9-.12-.9-.36l-.48.54c.36.32 1.26.54 2.7.66-.44 0-.88.22-1.32.66.12.16.34.2.66.12.2-.08.42-.14.66-.18 0 .76-.22 2.78-.66 6.06.44.44 1.1 1 1.98 1.68v30.72zm-11.04-19.92c-.12.16-.54.56-1.26 1.2 0-.44.06-1.11.18-2.01.12-.9.18-1.57.18-2.01.2.68.5 1.62.9 2.82zm1.08 1.8h-.48l-.42-.78.48-.18.42.96zm8.76 10.86h-.6v.9h.6v-.9zm-5.88 3.96h-2.22v-2.76c0-1.28-.24-2.06-.72-2.34.04-.28.22-1.06.54-2.34.24-1 .36-1.9.36-2.7 0-1.24-.3-2.4-.9-3.48.4-.44.66-1.16.78-2.16l.24-1.98h1.92v17.76zm-7.74-14.82c-.2-.2-.72-.3-1.56-.3v-1.32l1.56 1.62zm3.06 9.6h-1.62v-.6h1.62v.6zm-2.22.66l-.42.3-2.16-2.88.48-.3 2.1 2.88zM245.78 89l-.48.3-1.08-1.5.42-.36 1.14 1.56zm1.2 2.16h-.54l-.54-1.08.48-.24.6 1.32zm-11.1-11.22v-.6h-.9v.6h.9zm8.4 8.76h-1.56v-.6h1.56v.6zm1.44 2.22l-.3.42-1.5-1.14.3-.42 1.5 1.14zm-3.3-1.98l-.42 1.32-.48-.18.42-1.14h.48zm-1.32 1.56l-.42-.96-.48.18.36.78h.54zm-2.52-2.46v-.6h-2.28v.6h2.28zm1.38 2.34c-.96-.48-1.58-.98-1.86-1.5-.36.72-.66 1.18-.9 1.38.44-.32.74-.56.9-.72.44.56.78 1.02 1.02 1.38.4-.28.68-.46.84-.54zm-4.44-2.7v-.6h-1.2v.6h1.2zm-1.32 2.88c-.32-.6-.48-1.22-.48-1.86 0 .2-.28.3-.84.3.6.68 1.04 1.2 1.32 1.56zm-8.7-8.58l-2.64-2.46c1.36 1.8 2.08 2.9 2.16 3.3 0-.2.16-.48.48-.84zm5.7 5.34l-1.2.54-.78-.9c.24 0 .58.06 1.02.18.44.12.76.18.96.18zm2.28-.78c-.24-.24-.46-.36-.66-.36-.64 1.76-.96 2.76-.96 3 0 .56.24.98.72 1.26-.52 0-.78.26-.78.78-.56-.48-.84-.98-.84-1.5 0-.16.04-.34.12-.54-.56-.76-1.52-1.58-2.88-2.46.36-.04.94-.18 1.74-.42 0-.6-.54-1-1.62-1.2-1.56-.28-2.5-.54-2.82-.78.12 0 .37.06.75.18s.67.18.87.18c.24 0 .5-.02.78-.06-.2-.48-.86-1.28-1.98-2.4l5.16 4.68c1.04-.6 1.6-1.28 1.68-2.04 0 .12.12.4.36.84.24.44.36.72.36.84zm-11.4-7.44c0 .32-.04-.02-.12-1.02-.04-.56 0-.98.12-1.26-.24.56-.46 1.14-.66 1.74-.36.6-.84.9-1.44.9-.36 0-.54.16-.54.48 0 .12.02.26.06.42.36.28.64.44.84.48.12-.08.42-.42.9-1.02.4-.48.68-.72.84-.72zm2.16 3.06l-1.86-1.44-.3.42 1.86 1.5.3-.48zm-.72 1.98l-1.32-.42v.54l1.14.36.18-.48zm-1.68.72l-.96.42v-.48l.78-.42.18.48zm-1.02.9c-1-.04-2.12.36-3.36 1.2.68-.32 1.14-.72 1.38-1.2-.68-.2-1.7-.3-3.06-.3l.84-.96c.6.6.94.9 1.02.9.16 0 .28-.14.36-.42-.16.36.34.54 1.5.54.24 0 .4-.02.48-.06.04-.08.04-.18 0-.3s-.06-.22-.06-.3l.9.9zm-5.46-.42h-1.56v-.6h1.56v.6zm-2.34-.36h-2.22v-.6h2.22v.6zm-2.82-.54h-.6v-.9h.6v.9zm49.5-28.68v-.6h-1.86v.6h1.86zm-.12 6.54l-.48-.96-.42.18.36.78h.54zm.48 2.88v-.6l-1.56-.36v.54l1.56.42zm-7.38 2.28c-.04 0-.26.06-.66.18-.28.08-.5.06-.66-.06.28-.16.42-.26.42-.3-.16 0-.41.14-.75.42-.34.28-.55.5-.63.66 1.52-.52 2.28-.82 2.28-.9zm-3.96 24.18l-.78-.78.36-.36.84.84-.42.3zm-22.02-5.28c-.36 0-.92-.03-1.68-.09-.76-.06-1.32-.09-1.68-.09-.8 0-2.82.68-6.06 2.04.68-.28 1.68-.83 3-1.65s2.38-1.37 3.18-1.65c0 .56-.1.84-.3.84.08.08.3.12.66.12.52 0 .82-.28.9-.84v.9c.64.28 1.3.42 1.98.42zm98.1 11.94h-5.7v-.54h5.7v.54zm-10.32 0h-1.86v-.54h1.86v.54zm-4.86 0h-.84v-.54h.84v.54zm-5.76-34.38h-2.16v.54h2.16v-.54zm18.66 31.8h-.84v-.54h.84v.54zm-19.98-13.08c0-.56-.22-1.06-.66-1.5-.6 0-.9.3-.9.9 0 .28.3.72.9 1.32 0-.48.22-.72.66-.72zm-4.486 15.424c.705-.043 1.26-.064 1.666-.064-.4 0-.9.02-1.5.06-.056.004-.11.005-.166.004zm0 0l-.404.026c-.9.06-1.59.09-2.07.09-1.76 0-4.52-.24-8.28-.72-.6-.08-1.8-.52-3.6-1.32s-2.8-1.2-3-1.2c-.16 0-.35.04-.57.12-.22.08-.35.12-.39.12 0-.28.1-.52.3-.72-.84-.48-2.12-1.48-3.84-3-1.96-1.72-2.92-2.86-2.88-3.42-2.6-4.04-3.9-8.76-3.9-14.16 0-7 2.1-12.7 6.3-17.1 4.2-4.4 9.78-6.6 16.74-6.6 3.2 0 5.8.36 7.8 1.08 3 1.08 5.88 3.2 8.64 6.36.32 0 .46-.08.42-.24-.12-.4-.18-.54-.18-.42.8 1 1.58 2.3 2.34 3.9.84 1.72 1.32 3.14 1.44 4.26.12.2.18.34.18.42 0 .04-.04.06-.12.06-.08 0-.58-.3-1.5-.9-.96.96-1.7 1.8-2.22 2.52h-7.92c0-.16-.05-.38-.15-.66-.1-.28-.15-.46-.15-.54.12 0 .34.04.66.12.32.08.57.12.75.12.18 0 .28.06.3.18.02.12.13.18.33.18.28 0 .42-.06.42-.18-.04-.12-.12-.24-.24-.36 1.72 0 3.12-.12 4.2-.36-.16-.16-.7-.22-1.62-.18-.08-.04-.12-.08-.12-.12.04-.08.18-.18.42-.3-.28-.16-.66-.42-1.14-.78-.12.16-.18.48-.18.96h-1.68c-.28 0-.68-.07-1.2-.21-.52-.14-.92-.21-1.2-.21-.68-1.48-1.88-2.64-3.6-3.48-2.76-1.36-4.2-2.1-4.32-2.22l-.66.66c0 .08.16.14.48.18-2.56.08-4.34.56-5.34 1.44-.28-.28-.42-.72-.42-1.32l-.27-.15c-.18-.1-.37-.15-.57-.15-.24 0-.62.4-1.14 1.2.08.04.4.34.96.9-1.48 1.08-2.68 2.9-3.6 5.46-.84 2.24-1.26 4.4-1.26 6.48 0 1.52.22 2.9.66 4.14.72 1.92 1.12 3.1 1.2 3.54.04.68-.24 1.34-.84 1.98l1.44 1.44c.16-.16.24-.48.24-.96 2.52 2.36 5.38 3.54 8.58 3.54 5.04 0 8.08-2.78 9.12-8.34h11.82v1.44c0 .56-.28 1.54-.84 2.94-.56 1.4-.84 2.46-.84 3.18 0 .48.14.8.42.96-.64 0-1.08.12-1.32.36 0 .56-.02.72-.06.48.04.16.22.24.54.24h1.14c.52 0 .78-.32.78-.96.48.48.74.76.78.84 0 .12-.08.22-.24.3.44.24.96.34 1.56.3-.36-.04-2.18.16-5.46.6-.2.28-.8.9-1.8 1.86-.72.68-1.08 1.3-1.08 1.86 0 .32.08.64.24.96l-1.08-.9c-2.64 1.84-5.7 3.08-9.18 3.72.36.432.785.653 1.274.664zm9.646.236h-.84v-.54h.84v.54zm-1.26 0h-3.48v-.54h3.48v.54zm-4.2 0h-1.5v-.54h1.5v.54zM288.2 85.04l-.36.3-.78-.78.3-.3.84.78zM272.6 73.4c-.8.72-1.32 1.1-1.56 1.14h1.56V73.4zm19.86 21.42c-.12-.16-.3-.2-.54-.12l-.54.18c0-.48.28-.98.84-1.5 0 .76.08 1.24.24 1.44zm-1.32.72h-.48l-.42-.78.48-.18.42.96zm-1.02-.84l-.36.3-.78-.78.36-.3.78.78zm-3.36 3.3h-1.8v-.6h1.8v.6zm-4.8 0h-.9v-.6h.9v.6zm-1.32.12h-1.56c.4-.32.92-.72 1.56-1.2v1.2zm-1.92-.12h-3.42v-.6h3.42v.6zm-4.26.18c-.28-.32-.72-.48-1.32-.48.32 0 .64-.16.96-.48.24.44.36.76.36.96zm-2.52-.18h-3.42v-.6h3.42v.6zm-12.06-7.74l-.48-.18-.36.84.42.18.42-.84zm-6.96 7.5v-1.2c-.8.76-1.3 1.16-1.5 1.2h1.5zm57.78-30.6c.24-.6.38-1.1.42-1.5l1.44 1.44-1.86.06zm-.06-1.74v-.54h-.9v.54h.9zm-5.16-5.28c0-.6-.24-1.12-.72-1.56-.56 0-.84.32-.84.96 0 .28.28.7.84 1.26 0-.44.24-.66.72-.66zm-6.96.6l-.42-.9-.42.18.36.72h.48zm-2.1-3.12h-1.14v1.56c.76-.72 1.14-1.24 1.14-1.56zm-4.14 1.44c-.2-.08-.36-.12-.48-.12-.24 0-.44.08-.6.24-.32-.32-.66-.48-1.02-.48.16 0 .24.38.24 1.14 1-.52 1.62-.78 1.86-.78zm23.28 26.64l-.78-.78.3-.36.84.84-.36.3zm8.82 4.74c.04 0 .06.02.06.06 0 .28-.16.56-.48.84-.32.28-.62.42-.9.42-1.28 0-2.14-.34-2.58-1.02-.64-1-1.56-1.74-2.76-2.22.12-.08.26-.12.42-.12.24 0 .5.14.78.42.24 0 .44-.22.6-.66.48.52.96 1.02 1.44 1.5.64.52 1.46.78 2.46.78h.96zm-32.76 2.22c-.082.004-.24.444-.48 1.32 0-.48-.26-.72-.78-.72-.08 0-.16.02-.24.06v-1.26c.412.112.912.312 1.5.6zm0 0c.04 0 .08.02.12.06l-.12-.06zm1.92.42c-1.68-.96-2.92-1.62-3.72-1.98-.84 1.6-1.84 2.5-3 2.7 1.88 1.84 2.96 2.76 3.24 2.76.28 0 .85-.21 1.71-.63.86-.42 1.45-.65 1.77-.69v-2.16zm-37.62 0l-1.26.36v-.48l1.08-.36.18.48zm95.7-.6l-.54 1.38.48.18.54-1.56h-.48zm-.84.54l-.78.72.3.36.84-.78-.36-.3zm-8.22-.54h-.54v.84h.54v-.84zm-.84 1.5c0-.2-.12-.5-.36-.9l-.9.66c-.04 0-.15-.03-.33-.09-.18-.06-.31-.09-.39-.09.2 0 .28.26.24.78.48-.24 1.06-.36 1.74-.36zm-4.26-1.2h-.6v1.2h.6v-1.2zm-1.08 1.44c-.32-.64-.48-1.18-.48-1.62 0 1-.26 1.5-.78 1.5.24.28.48.42.72.42.16 0 .34-.1.54-.3zm3.6 6.12h-.48l-.36-1.08.42-.12.42 1.2zm-11.34 9.78h-3.36v-.6h3.36v.6zm-11.46-.36h-.84v-.54h.84v.54zm-2.22-.3h-1.2v-.54h1.2v.54zm44.64-38.52h-1.2v.54h1.2v-.54zm3.54 11.64c-.4 1.64-1.06 3.22-1.98 4.74h-1.26c-.08 1.12-.66 2.38-1.74 3.78-.96 1.24-1.98 2.22-3.06 2.94-.12 0-.26-.15-.42-.45-.16-.3-.26-.47-.3-.51-.2.2-.3.46-.3.78 0-.32.08-.79.24-1.41.16-.62.24-1.09.24-1.41-.28-.08-.66-.26-1.14-.54-.36.36-.54.78-.54 1.26-.04 0-.16-.05-.36-.15-.2-.1-.38-.15-.54-.15 0 .08.16.36.48.84.32.48.48.84.48 1.08 0 .2-.07.5-.21.9-.14.4-.21.68-.21.84 0 .16.04.3.12.42l-5.28 1.74c-.72.16-1.94.24-3.66.24-.2 0-.34-.05-.42-.15-.08-.1-.2-.15-.36-.15-.28 0-.42.1-.42.3 0 .24-.14.36-.42.36-.32 0-.68-.32-1.08-.96-.24.64-.88.96-1.92.96-.28 0-.4-.08-.36-.24.12-.2.14-.34.06-.42l-.66.66c-1.76-1.08-2.72-1.62-2.88-1.62-.12 0-.2.04-.24.12 0 .04.03.11.09.21.06.1.09.17.09.21 0 .08-.08.12-.24.12-.16 0-.87-.35-2.13-1.05-1.26-.7-1.93-1.11-2.01-1.23-.2.2-.3.52-.3.96l-1.62-1.62c-.68-.68-1.12-1.52-1.32-2.52-.12.24-.18.46-.18.66-2.48-1.48-4.42-4.1-5.82-7.86-1.2-3.16-1.8-6.44-1.8-9.84 0-8 2.24-14.06 6.72-18.18.16-.16.72-.22 1.68-.18.12-.12.16-.32.12-.6-.12-.36-.18-.56-.18-.6.84-.6 2.02-1.3 3.54-2.1 1.88-1 3.08-1.5 3.6-1.5.28 0 .4.08.36.24-.12.2-.14.34-.06.42.16-.12.24-.42.24-.9 3.68-.48 6.48-.72 8.4-.72 1.8 0 4.26.66 7.38 1.98 3.56 1.52 5.36 3 5.4 4.44.16-.24.24-.46.24-.66.08.12.66.76 1.74 1.92.56.6.86 1.24.9 1.92 0-.12-.1-.34-.3-.66-.36.68-.54 1.22-.54 1.62 0 .4.52 1.64 1.56 3.72-.08-.08-.18-.12-.3-.12s-.24.04-.36.12v8.04c-.12 0-.38-.1-.78-.3-.12.08-.3.37-.54.87-.24.5-.46.75-.66.75-.28 0-.46-.06-.54-.18-.04-.08-.14-.08-.3 0 .32.56.64.84.96.84-.28 0-.16-.06.36-.18s.84-.18.96-.18c.2 0 .4.02.6.06 0 .44-.1 1.08-.3 1.92-.2.84-.3 1.46-.3 1.86 0 .24.14.53.42.87.28.34.54.51.78.51-.24.36-.36.64-.36.84l-.66-.6c-.16.56-.54 1.46-1.14 2.7.52.52 1 .78 1.44.78.16 0 .37-.1.63-.3.26-.2.47-.3.63-.3h2.04zm-7.62 6.3l-.42.24.72 1.14.42-.3-.72-1.08zm-3.72 2.64h-.54v.84h.54v-.84zm-22.68-12.9l-.84.84-.3-.36.78-.78.36.3zM339.68 92l-.12.48.78.36.18-.42-.84-.42zm-15.66-15.84c-.4.44-.8.66-1.2.66-.92 0-1.38.3-1.38.9 1.68-.56 2.94-.92 3.78-1.08l-1.2-.48zm10.38 16.26l-.36.78.42.24.42-.84-.48-.18zm-1.44-.72h-.54v2.58h.54V91.7zm24.24-32.16v-.84h-.54v.84h.54zm2.4 4.92v-.54h-1.5v.54h1.5zm-3.78-8.7h-8.94v-1.14c0-1.6-.98-2.4-2.94-2.4-.24 0-.48.02-.72.06h-1.08c.04.2.06.4.06.6 0 .72-.28 1.14-.84 1.26-.4.08-.78.14-1.14.18 1.36 1.8 2.42 2.7 3.18 2.7.56 0 1.41-.16 2.55-.48 1.14-.32 1.99-.48 2.55-.48.4 0 .6.54.6 1.62 0 .44-.3.94-.9 1.5.08 0 .24-.04.48-.12.24-.08.44-.12.6-.12.24 0 .56.64.96 1.92.24-.16.62-.42 1.14-.78-.52-.52-1.28-1.78-2.28-3.78 1-.16 3.24-.34 6.72-.54zm-7.56 3.72l-.36-.3-.78.78.3.36.84-.84zm14.34 16.74l-.78-.78.3-.3.78.78-.3.3zm-4.92-4.74v-.54h-1.5v.54h1.5zm-1.92 0v-.54h-.84v.54h.84zm-4.74-2.7l-.42-.78.48-.18.36.96h-.42zm-4.44-5.28c-.12.12-.22.18-.3.18-.16 0-.32-.1-.48-.3-.16.16-.38.2-.66.12-.28-.08-.42-.2-.42-.36l1.86.36zm2.28 3.84l-.78-.78.3-.36.84.78-.36.36zm8.58 7.38c-.2-.12-.53-.24-.99-.36-.46-.12-.79-.24-.99-.36 0-.12.05-.28.15-.48.1-.2.15-.36.15-.48h-1.5l2.34 2.34c-.04-.04-.06-.08-.06-.12 0-.08.14-.18.42-.3.28-.12.44-.2.48-.24zm6.66 4.68c-.44.92-.66 1.74-.66 2.46-.32 0-.77.06-1.35.18-.58.12-1.03.18-1.35.18-.16 0-.28-.05-.36-.15-.08-.1-.18-.15-.3-.15l-.72-.9c.2.12.46.18.78.18.44 0 1.02-.14 1.74-.42-.4-.4-.6-.86-.6-1.38h2.82zm-28.08-23.1c-.48-1.76-.72-2.58-.72-2.46-.48.76-1.04 1.62-1.68 2.58.36-.08.8-.3 1.32-.66.4.36.76.54 1.08.54zm23.16 22.14h-.6l-.36 1.5h.54l.42-1.5zm-8.54-6.93c-.157-.05-.35-.08-.58-.09h.48l.1.09zm0 0l.44.39c0 .2.02.3.06.3.057-.342-.11-.573-.5-.69zm-13.66-11.79v-.54h-1.2v.54h1.2zm21.3 22.5v-1.5c-.16-.08-.66-.46-1.5-1.14-.68-.56-1.16-.84-1.44-.84-.88 0-1.56.14-2.04.42.68 1.08 1.02 2 1.02 2.76-.12-.4-.48-1-1.08-1.8 0-.28-.1-.21-.3.21-.2.42-.3.73-.3.93 0 1.08.42 1.62 1.26 1.62.2 0 .34-.11.42-.33.08-.22.2-.33.36-.33.32 0 .64.16.96.48.4.44.66.68.78.72-.32-.32-.48-.56-.48-.72 0-.08.02-.14.06-.18.44.24 1.02.32 1.74.24-.36-.28-1.12-1.32-2.28-3.12 1.56 1.16 2.5 2.02 2.82 2.58zM333.8 57.44h-1.56c0 .56-.32 1.14-.96 1.74.64-.36 1.48-.94 2.52-1.74zm27.48 29.22l-1.26-.36v.42l1.08.42.18-.48zM331.4 56.42h-.54l-.36 1.5h.54l.36-1.5zm25.864 29.36c.07-.014.17-.02.296-.02.28 0 .54.08.78.24l.3.3c-.44-1.36-.66-2.28-.66-2.76-.08.04-.58.06-1.5.06.2.12.52.36.96.72-.102.17-.16.656-.176 1.46zM337.76 64.39c-.01-.27-.07-.606-.18-1.01.28.28.42.54.42.78-.086.08-.167.158-.24.23zm0 0v.07c0 .28-.04.5-.12.66.36.24.66.36.9.36.44 0 .84-.26 1.2-.78 0 .6-.44 1.12-1.32 1.56l-.66-.6-.3.6c-.2.44-.46.66-.78.66-.16 0-.4-.03-.72-.09-.32-.06-.56-.09-.72-.09.32 0 1.12-.42 2.4-1.26-.2-.12-.4-.18-.6-.18 0-.138.24-.442.72-.91zm-8.82-7.43v-1.02c-.04.12-.16.38-.36.78-.12-.12-.44-.18-.96-.18.12 0 .34.07.66.21.32.14.54.21.66.21zm10.92 12.12l-.72-1.38.42-.18.72 1.56h-.42zm-7.56-8.46l-1.38-1.44-.36.3 1.44 1.44.3-.3zm10.32 12v-1.5h.54v1.5h-.54zm14.58 14.64v-.84h-.54v.84h.54zm1.14 1.62v-1.14c-.16-.16-.52-.24-1.08-.24.04 0 .18.21.42.63.24.42.46.67.66.75zm-3.66-4.26c0 .2-.3.3-.9.3.16 0 .28.1.36.3.08.16.08.32 0 .48.36-.28.54-.64.54-1.08zm-14.46-11.7l-.18-2.76h.6l.12 2.76h-.54zm16.5 15.96v-1.5c-.4.04-.92-.02-1.56-.18.04-.04.27-.21.69-.51.42-.3.63-.47.63-.51-.48-.48-.9-.72-1.26-.72 0 .2.1.44.3.72-.48.48-.66 1.02-.54 1.62-.52.8-.74 1.38-.66 1.74.52-.64.92-.96 1.2-.96.16 0 .38.05.66.15.28.1.46.15.54.15zm-16.98-17.04l-.84-.42.18-.48.84.42-.18.48zm12.54 12.42v-.54h-.9v.54h.9zm-24.42-25.5l-.48-.18-.72 1.5.48.18.72-1.5zm-1.38.42c-.2-.2-.36-.5-.48-.9l-.78.9h1.26zm27.72 27.3c-.44 0-.86-.2-1.26-.6.2-.2.42-.32.66-.36h-1.26c.68 1.32 1.02 2.14 1.02 2.46.2-.36.48-.86.84-1.5zm.66-21.54l-.72-.9c-.12 0-.28.11-.48.33-.2.22-.36.33-.48.33-.32-.32-.6-.48-.84-.48.12 0 .18.04.18.12 0 .08-.17.21-.51.39-.34.18-.55.27-.63.27-.2 0-1.24-.69-3.12-2.07-1.88-1.38-2.92-2.07-3.12-2.07-.24 0-.45.11-.63.33l-.27.33c-.04-.04-.1-.2-.18-.48-.04-.12-.22-.18-.54-.18-.28 0-.7.05-1.26.15-.56.1-.98.15-1.26.15-.2 0-.3-.04-.3-.12 0-.04.02-.1.06-.18.04-.08.06-.14.06-.18-.04-.08-.14-.12-.3-.12-.72 0-1.49.25-2.31.75-.82.5-1.29 1.09-1.41 1.77l-.72-.6c-.36.36-.9.84-1.62 1.44.2 0 .46.14.78.42l.66-.6c.2.2.26.34.18.42-.48.28-.9.42-1.26.42-.2 0-.4-.06-.6-.18-.08.4-.3.89-.66 1.47-.36.58-.58 1.01-.66 1.29.12 0 .48-.3 1.08-.9.04.28.2.66.48 1.14-.44.48-1.1 1.18-1.98 2.1.44-1.4.66-2.02.66-1.86-1.48-.76-2.22-1.54-2.22-2.34 0-.16.05-.36.15-.6.1-.24.15-.38.15-.42h1.02c-.68-.36-1.1-.86-1.26-1.5-.88.6-1.32 1.4-1.32 2.4 0-.44.12-.22.36.66s.36 1.44.36 1.68c1 0 1.72.08 2.16.24-.8 1.16-1.2 2.64-1.2 4.44v6.24c-.04-.08-.06-.3-.06-.66-.04-.24-.2-.36-.48-.36-.24 0-.59.11-1.05.33-.46.22-.81.33-1.05.33-.36 0-.74-.2-1.14-.6 0 .36-.07.89-.21 1.59-.14.7-.21 1.23-.21 1.59h-1.26v1.86c.76 0 1.34.22 1.74.66.2-.28.26-.52.18-.72-.04-.08-.16-.3-.36-.66l.48-.54.3.6c.08.16.27.28.57.36.3.08.48.21.54.39.06.18.23.27.51.27.72 0 1.24-.32 1.56-.96.2.36.82.6 1.86.72.84.64 1.36 1.5 1.56 2.58.08.44.08 1.34 0 2.7h1.2c-.52-.52-.78-1.06-.78-1.62 0-.4.12-.7.36-.9 1.92 1.28 3.14 1.92 3.66 1.92.16 0 .31-.05.45-.15.14-.1.31-.15.51-.15.16 0 .24.06.24.18 0 .04-.03.13-.09.27s-.09.25-.09.33c0 .08.02.14.06.18.36-.12.92-.16 1.68-.12 1.4.08 1.9.12 1.5.12 1.2 0 2.68-.8 4.44-2.4.88-.76 1.96-1.78 3.24-3.06.4.44.6.76.6.96.12-.44.18-.82.18-1.14 0-.52-.14-.94-.42-1.26l1.38-5.7c0-.56-.54-1.38-1.62-2.46.28 0 .56.12.84.36l.42.48c0-1.08.24-1.94.72-2.58-.52-.36-.94-1-1.26-1.92l-.72-2.1c.68 0 1.38.18 2.1.54-1.08-.52-1.98-1.14-2.7-1.86l.48-.54c.36.36.84.54 1.44.54-.32-.28-.48-.52-.48-.72 0-.08.02-.14.06-.18h2.64zm.12 25.86l-.42-.96-.42.18.36.78h.48zm-3-3.9c-.36-.6-.82-1.42-1.38-2.46-.72.6-1.16 1.24-1.32 1.92 0-.08.06-.12.18-.12s.3.04.54.12l.54-.66.18 1.14c-.12.12-.32.14-.6.06l-.6-.18c0 .52-.12.9-.36 1.14.44 0 .8.14 1.08.42.24-.12.82-.58 1.74-1.38zm1.62 5.22l-.42-.18.36-.78.48.12-.42.84zm-24.06-23.94v-1.92c-.04.4-.32.88-.84 1.44.2.04.48.2.84.48zm19.5 21.66c.2-.4.3-.74.3-1.02 0-.32-.12-.6-.36-.84-1.56.52-2.42.78-2.58.78.36 0 .54.36.54 1.08h2.1zm.66 1.14v-.54l-1.8-.36v.54l1.8.36zm-3.72-1.44l-1.26-.42v.48l1.08.42.18-.48zm-21-20.88l-.42-.18-.42.84.42.18.42-.84zm19.5 19.98h-.54l-.24 1.2h.6l.18-1.2zm1.26 1.68l-.48-.12-.42.78.48.24.42-.9zm-14.58-10.38v-1.2h.54v1.2h-.54zm-.06.9c-.8 0-1.46.24-1.98.72V79.1c.24 0 .54.2.9.6.56.64.92 1.02 1.08 1.14zm-7.8-7.56l-.18-.42-2.7 1.68.12.48 2.76-1.74zm15.12 19.08v-1.14h-.6v1.14h.6zm-.96-.3v-.84h-.6v.84h.6zm-.96 0v-.84h-.6v.84h.6zm-3.36-3.66h-1.38l.9.18v1.14c0-.08.08-.3.24-.66.16-.36.24-.58.24-.66zm-2.04.06c-.16 0-.3-.12-.42-.36-.08-.24-.04-.44.12-.6-.4.4-.88.6-1.44.6.48.24 1.06.36 1.74.36zm-6.18-6.24l-1.26-.42v.48l1.08.36.18-.42zm2.82 4.92c-.2 0-.48-.14-.84-.42v1.86c.24-.12.43-.38.57-.78.14-.4.23-.62.27-.66zm-8.58-3.78c-.36.08-.66.22-.9.42.08-.8-.36-1.6-1.32-2.4.84.28 1.58.94 2.22 1.98zm37.86-19.14h-2.1v.6h2.1v-.6zM344.6 53.6h-1.14v-.54h1.14v.54zm13.32 21.24l-.6.78.42.3.6-.84-.42-.24zm-13.5-11.82H344l-.42-.72.48-.18.36.9zm-1.56-.3h-.54l-.36-1.5h.54l.36 1.5zm.78 2.88c-.52-.08-1.1.04-1.74.36-.24-.4-.58-1.02-1.02-1.86.36 0 .74.42 1.14 1.26.2-.04.38-.08.54-.12.32-.04.48-.12.48-.24s-.14-.3-.42-.54c.44 0 .78.38 1.02 1.14zm-3.3-1.38c-.12 0-.3-.04-.54-.12-.24-.08-.42-.12-.54-.12.32-.28.48-.52.48-.72 0 .64.2.96.6.96zm-1.56-2.4c.2.2.3.44.3.72.04.36-.12.54-.48.54-.48 0-.9-.14-1.26-.42.36-.16.84-.44 1.44-.84zm-6.9-.9c-.52 0-.9-.12-1.14-.36-.36.72-.66 1.14-.9 1.26-.24-.32-.36-.54-.36-.66 0 .24.12.51.36.81.24.3.48.45.72.45 0-.28.22-.47.66-.57.44-.1.66-.41.66-.93zm-2.76.6h-.54v.9h.54v-.9zm-1.02 4.56c-.28 0-.69.09-1.23.27-.54.18-.93.27-1.17.27-.72 0-1.28-.22-1.68-.66.52 1.56.84 2.4.96 2.52l3.12-.78c-.16-.08-.44-.08-.84 0-.36.08-.66.12-.9.12s-.42-.04-.54-.12c.36-.2.76-.6 1.2-1.2.24-.4.6-.54 1.08-.42zm-.24 2.94l-1.14.78.3.42 1.14-.78-.3-.42zm-2.34.42l-.42.84.42.18.42-.84-.42-.18zm-1.62-1.38h-1.86v.6h1.86v-.6zm5.76 7.62c-.16-.16-.44-.26-.84-.3-.44-.04-.74 0-.9.12-.32-.4-.52-.68-.6-.84h-1.5c1.04.6 1.68 1.14 1.92 1.62-.4.28-1.04.4-1.92.36 1.16.36 2 .6 2.52.72-.2-.2-.3-.62-.3-1.26.8 0 1.34-.14 1.62-.42zm-2.94.06h-.84v.54h.84v-.54zm62.64 16.2h-.54v-1.56h.54v1.56zm-7.02-2.22h-.6v1.26h.6v-1.26zm-3.36 2.34h-.6v.9h.6v-.9zm18.96-30.42l-1.56-.36v-.6l1.56.42v.54zm2.34 4.56c-1.2-.4-2.18-1-2.94-1.8v-1.2h1.2l1.74 1.74v1.26zm-15.48-9.36l-.42 1.56h.6l.42-1.56h-.6zm2.34 4.26l-.3.36.78.78.36-.3-.84-.84zm-6.66-4.14l-1.92-.36V56l1.92.36v.6zm15.96 16.68h-.6v.9h.6v-.9zm-20.1-18.66c-.48-.24-1.2-.72-2.16-1.44h1.26c.2.36.5.84.9 1.44zm24.84 25.68l-.18 1.26h.6l.18-1.26h-.6zm.78.9l-.78 1.14.48.36.78-1.2-.48-.3zm-12.6-11.94h-.54v.9h.54v-.9zM380 61.1h-.48l-.42-.78.48-.18.42.96zm-5.1-6l-1.2.84-.3-.48 1.2-.78.3.42zm11.7 12.66c-.16-.4-.24-.78-.24-1.14 0-.24.04-.48.12-.72-1 1.08-1.74 1.94-2.22 2.58 1.04-.36 1.82-.6 2.34-.72zm8.82 10.14h-.54l-.36-1.14.48-.18.42 1.32zm2.562.243c.212.273.318.572.318.897l-.318-.897zM382.22 60.98c-.88-.8-1.98-1.94-3.3-3.42 1.08.52 1.82 1.18 2.22 1.98.52 0 .78-.22.78-.66.68 0 1.18.32 1.5.96.16-.16.24-.36.24-.6 0-.36-.26-.54-.78-.54.6-.6.94-.92 1.02-.96-.533-.084-1.248-.283-2.16-.6-.12.12-.19.34-.21.66-.02.32-.09.54-.21.66 0-.4-.02-.78-.06-1.14.04-.4.24-.74.6-1.02-.24-.28-.48-.42-.72-.42-.16 0-.32.08-.48.24 0-.685-.1-1.12-.3-1.32-.44.2-1.24.52-2.4.96-.04-.2-.06-.38-.06-.54 0-.4.1-.8.3-1.2l-.24-.54c-.08-.24-.28-.36-.6-.36-.2 0-.37.11-.51.33-.14.22-.31.33-.51.33-.24 0-.72-.24-1.44-.72-.92-.6-1.42-.92-1.5-.96-.2.32-.3.64-.3.96.04.2.12.3.24.3s.28-.06.48-.18l-.9.96c0-.52-.08-.86-.24-1.02-.16.24-.24.46-.24.66-.4-.24-.7-.36-.9-.36v-2.94h12.6l11.04 19.08c.28-.2.64-.3 1.08-.3 0 .16.06.42.18.78.12.36.18.62.18.78-1.16.48-1.94 1-2.34 1.56.04.04.1.18.18.42 0 .08.16.12.48.12l1.2-.36c.678 0 1.018.956 1.02 2.867-.014-.56-.354-.827-1.02-.827-.2 0-.918.538-2.154 1.615.244-.28.354-.81.354-1.615.32 0 .58.1.78.3l.54-.54v-1.2c-.52 0-.78.34-.78 1.02-.48-.08-.89-.33-1.23-.75-.34-.42-.45-.85-.33-1.29l-.57.54c-.38.36-.71.54-.99.54-.48 0-.72-.22-.72-.66v-.06c-.08 0-.12.2-.12.6 0 .92.88 2.38 2.64 4.38 1.76 2 2.64 3.26 2.64 3.78 0 .32-.08.6-.24.84.16.08.44.26.84.54.04-.12.26-.4.66-.84.28-.32.42-.64.42-.96 0-.12-.01-.25-.033-.392.052.377.388.89.993 1.532.24-.12.62-.72 1.14-1.8-.72-.48-1.5-.72-2.34-.72-.035-.363-.08-.767-.137-1.212-.027.056-.04.116-.043.18 0-.222-.003-.4-.007-.558-.066-.486-.143-1.016-.233-1.59.04-.04.06-.08.06-.12l.363 1.025c.154.077.293.115.417.115.08-.08.12-.16.12-.24 0-.12-.08-.32-.24-.6-.16-.28-.24-.46-.24-.54 1.16.84 1.74 1.54 1.74 2.1 0 .36-.16.72-.48 1.08.56.56 1.06.84 1.5.84.417 0 .653-.12.708-.362-.023.06-.08.276-.168.602-.04.16 0 .3.12.42.4-.48.6-.9.6-1.26 0-.2-.12-.48-.36-.84s-.36-.62-.36-.78V50.48h11.34V98h-12.6l-9.06-16.38c-.52 0-.78-.16-.78-.48 0-.16.12-.28.36-.36-1.12-1.12-1.68-2.12-1.68-3 0-.48.68-1.72 2.04-3.72.08-.12.02-.28-.18-.48-.44.52-1.22 1.42-2.34 2.7-.64-.28-1.18-1.1-1.62-2.46l-.9-2.82c.8-.68 1.2-1.34 1.2-1.98 0-.16-.02-.32-.06-.48-.2.16-.62.84-1.26 2.04-.48-.36-1-.96-1.56-1.8-.68-.96-1.18-1.6-1.5-1.92l-.54.6c0 .04.16.24.48.6.32.36.5.6.54.72-.28.12-.58.26-.9.42 0-.24-.06-.58-.18-1.02-.12-.44-.18-.78-.18-1.02l-1.08.36v-4.44l-.48-.6c-.12.92-.7 3.16-1.74 6.72.2-1.08.6-2.7 1.2-4.86 0-.44-.06-.72-.18-.84-.12.12-.26.18-.42.18-.24 0-.48-.12-.72-.36.84-.48 1.2-.96 1.08-1.44.56.32 1.44.82 2.64 1.5-.32-.6-.78-1.42-1.38-2.46.16 0 .56.3 1.2.9.08-.08.16-.22.24-.42.08-.2.16-.34.24-.42zm1.02 4.68c-.12-.2-.18-.68-.18-1.44 0-.64-.12-1.1-.36-1.38-.44 1.28-1.04 2.6-1.8 3.96h1.2c.76-.64 1.14-1.02 1.14-1.14zm17.7 19.38l-.6 1.44.48.18.6-1.62h-.48zM372.98 58.1l-.48.3-1.14-1.68.48-.3 1.14 1.68zm26.76 26.58h-.54v1.26h.54v-1.26zm-.78 1.38c-.6.32-1.12.48-1.56.48-.24 0-.46-.06-.66-.18 0 .2.12.52.36.96.8-.4 1.42-.82 1.86-1.26zm-21-21.12l-.72 3.54h-.48l.66-3.54h.54zm-1.68 3.54h-.54v-4.26h.54v4.26zm12.78 13.08h-.6L388.1 80h.6l.36 1.56zm8.1 8.28c-.28-.32-.56-.48-.84-.48 0 .16.2.49.6.99.4.5.58.83.54.99 0-.2.18-.38.54-.54l-.84-.96zm-12-8.1l-2.22-.36v-.54l2.22.36v.54zm-4.08-12.335c-.326-.303-.606-.57-.84-.805.48.48.76.74.84.78v.025zm-1.314 17.214c-.044-.16-.066-.325-.066-.5 0-.12.04.02.12.42.017.033 0 .06-.054.08zm1.313-17.215c.284.265.605.557.96.875.12.4.18.88.18 1.44 0 1.16-.34 2.89-1.02 5.19-.68 2.3-1.02 3.91-1.02 4.83v1.02l.6.54c.12 0 .34-.04.66-.12.24-.08.36-.06.36.06-.28.12-.86.14-1.74.06-.12.12-.18.24-.18.36 0 .16.1.34.3.54-.4-.04-.84.4-1.32 1.32 0 .92-.02 1.14-.06.66.04.32.22.48.54.48.21 0 .352-.014.426-.04.157.563.595 1.016 1.314 1.36.28 0 .24.04-.12.12-.24.08-.44.04-.6-.12-.56.6-.84.96-.84 1.08.16.04.38.06.66.06.24 0 .57-.02.99-.06.42-.04.75-.06.99-.06.28 0 .5.02.66.06V98h-11.28V65.06c-.04-.16.22-.88.78-2.16.56-1.28.86-2.18.9-2.7.64.24 1.06.36 1.26.36-.28.48-.68 1.5-1.2 3.06-.52 1.56-.78 2.58-.78 3.06 0 1.24.38 1.86 1.14 1.86.52 0 .8.28.84.84-.12.4-.18.8-.18 1.2 0 .2.02.42.06.66.4-.4.64-.62.72-.66.12.16.12.52 0 1.08-.12.6-.14 1.02-.06 1.26.12-.12.3-.16.54-.12.48.08.8.12.96.12.2 0 .79-.62 1.77-1.86.98-1.24 1.57-1.86 1.77-1.86.28 0 .5.06.66.18l.24.18c.072-.036.11-.088.12-.155zm19.56-1.045c-1.04.56-1.88.84-2.52.84-.56 0-1.36-.47-2.4-1.41-1.04-.94-1.62-1.69-1.74-2.25h1.44c-.04 0 .52.35 1.68 1.05 1.16.7 2.1 1.03 2.82.99 0 .52.24.78.72.78zm-17.82-13.14c-.72-.6-1.22-1.04-1.5-1.32-.52-.52-.86-1-1.02-1.44v1.26c.64.36 1.48.86 2.52 1.5zm-4.38-2.46c-.44-.88-.92-1.32-1.44-1.32-.2 0-.34.32-.42.96.24-.08.48-.12.72-.12.44 0 .82.16 1.14.48zm14.22 16.8l-.18-.48-.84.42v.48l1.02-.42zm-9-6.78l-.42-.96-.48.18.42.78h.48zm3.72 4.38l-.36-2.22h-.6l.36 2.22h.6zm2.82 2.16v-.54h-.9v.54h.9zm-4.68-4.62v-.6l-1.56-.42v.6l1.56.42zm3.78 3.84l-.9-.48-.18.48.9.48.18-.48zm-4.14-3.66c-.76 0-1.26-.12-1.5-.36 0 .2-.14.52-.42.96-.32 0-.06-.08.78-.24.36-.08.54.08.54.48 0 .28-.13.57-.39.87-.26.3-.51.45-.75.45.8 0 1.28-.1 1.44-.3 0-.2.05-.51.15-.93.1-.42.15-.73.15-.93zm-9-2.76c-.8 0-1.34.14-1.62.42.12-.12.3-.35.54-.69.24-.34.42-.57.54-.69.36 0 .54.32.54.96zm20.94 22.44l-.36-1.86h-.6l.36 1.86h.6zm-25.2-21.42h-.54l.36-1.56h.6l-.42 1.56zm2.88.06c-.2.76-.3 1.52-.3 2.28 0 .68.08 1.36.24 2.04-.6-.96-.9-1.68-.9-2.16 0-.84.32-1.56.96-2.16zm12.36 16.86l-.3-.48 1.2-.78.3.48-1.2.78zm-11.7-10.26l-.36-1.08.48-.18.42 1.26h-.54zm14.46 14.76c-.6-.08-1.22.06-1.86.42-.48-.88-.84-1.52-1.08-1.92.36 0 .76.42 1.2 1.26.68-.12 1.02-.24 1.02-.36s-.14-.3-.42-.54c.48 0 .86.38 1.14 1.14zm-3.48-1.44c-.12 0-.31-.04-.57-.12-.26-.08-.45-.12-.57-.12.32-.28.48-.54.48-.78 0 .68.22 1.02.66 1.02zm-3.78-1.02l-1.5-1.14.3-.48 1.5 1.14-.3.48zm1.018 1.207c-.013-.296-.072-.638-.178-1.027.28.28.42.54.42.78-.087.087-.167.17-.242.247zm0 0l.002.113c0 .24-.04.46-.12.66.36.24.68.36.96.36.44 0 .88-.26 1.32-.78 0 .64-.48 1.18-1.44 1.62l-.66-.66c-.08.08-.22.33-.42.75-.2.42-.44.63-.72.63-.16 0-.42-.03-.78-.09-.36-.06-.62-.09-.78-.09.36 0 1.2-.44 2.52-1.32-.2-.16-.4-.24-.6-.24 0-.138.24-.456.718-.953zm2.222 4.973l-.78-1.44.48-.24.78 1.68h-.48zm-3.3-.9l-.48-.24.42-.84.48.18-.42.9zm3.72 4.92l-.18-2.94h.54l.18 2.94h-.54zm-7.14-2.28c-.24 0-.57-.04-.99-.12-.42-.08-.75-.12-.99-.12l.66.72c-.2.2-.52.3-.96.3.44.12 1.18.52 2.22 1.2v-1.08c0-.2.02-.4.06-.6v-.3z" fill="#DFDFDF"/><circle fill="gray" cx="460" cy="19" r="7"/><circle fill="gray" cx="460" cy="130" r="7"/><circle fill="gray" cx="19" cy="19" r="7"/><circle fill="gray" cx="19" cy="130" r="7"/></g></svg>
